<svg width="349" height="462" viewBox="0 0 349 462" fill="none" xmlns="http://www.w3.org/2000/svg">
<path d="M0 401C0 394.373 5.37258 389 12 389H205C211.627 389 217 394.373 217 401V450C217 456.627 211.627 462 205 462H12C5.37258 462 0 456.627 0 450V401Z" fill="white"/>
<path d="M15.798 409.712C15.798 409.796 15.854 409.852 15.938 409.852H17.212V417.86C17.212 417.944 17.268 418 17.352 418H18.752C18.836 418 18.892 417.944 18.892 417.86V408.438C18.892 408.354 18.836 408.284 18.752 408.284H15.938C15.854 408.284 15.798 408.354 15.798 408.438V409.712Z" fill="black"/>
<path d="M20.3195 413.142C20.3195 416.138 21.7475 418.126 23.8755 418.126C26.0035 418.126 27.4175 416.138 27.4175 413.142C27.4175 410.146 26.0035 408.158 23.8755 408.158C21.7475 408.158 20.3195 410.146 20.3195 413.142ZM21.9995 413.142C21.9995 411.154 22.7415 409.824 23.8755 409.824C24.9815 409.824 25.7375 411.154 25.7375 413.142C25.7375 415.13 24.9955 416.46 23.8755 416.46C22.7415 416.46 21.9995 415.144 21.9995 413.142Z" fill="black"/>
<path d="M28.673 413.142C28.673 416.138 30.101 418.126 32.229 418.126C34.357 418.126 35.771 416.138 35.771 413.142C35.771 410.146 34.357 408.158 32.229 408.158C30.101 408.158 28.673 410.146 28.673 413.142ZM30.353 413.142C30.353 411.154 31.095 409.824 32.229 409.824C33.335 409.824 34.091 411.154 34.091 413.142C34.091 415.13 33.349 416.46 32.229 416.46C31.095 416.46 30.353 415.144 30.353 413.142Z" fill="black"/>
<path d="M37.0265 413.142C37.0265 416.138 38.4545 418.126 40.5825 418.126C42.7105 418.126 44.1245 416.138 44.1245 413.142C44.1245 410.146 42.7105 408.158 40.5825 408.158C38.4545 408.158 37.0265 410.146 37.0265 413.142ZM38.7065 413.142C38.7065 411.154 39.4485 409.824 40.5825 409.824C41.6885 409.824 42.4445 411.154 42.4445 413.142C42.4445 415.13 41.7025 416.46 40.5825 416.46C39.4485 416.46 38.7065 415.144 38.7065 413.142Z" fill="black"/>
<path d="M45.758 420.366C45.8 420.408 45.842 420.422 45.898 420.422C45.926 420.422 45.94 420.422 45.968 420.408C46.92 419.904 47.76 418.21 47.55 416.894C47.508 416.348 47.102 415.984 46.542 415.984C45.912 415.998 45.506 416.404 45.506 417.048C45.506 417.58 45.814 417.958 46.304 418.042C46.318 418.056 46.332 418.056 46.36 418.056C46.192 418.798 45.674 419.372 45.24 419.708C45.17 419.764 45.156 419.848 45.212 419.904L45.758 420.366Z" fill="black"/>
<path d="M48.8116 413.142C48.8116 416.138 50.2396 418.126 52.3676 418.126C54.4956 418.126 55.9096 416.138 55.9096 413.142C55.9096 410.146 54.4956 408.158 52.3676 408.158C50.2396 408.158 48.8116 410.146 48.8116 413.142ZM50.4916 413.142C50.4916 411.154 51.2336 409.824 52.3676 409.824C53.4736 409.824 54.2296 411.154 54.2296 413.142C54.2296 415.13 53.4876 416.46 52.3676 416.46C51.2336 416.46 50.4916 415.144 50.4916 413.142Z" fill="black"/>
<path d="M57.1652 413.142C57.1652 416.138 58.5932 418.126 60.7212 418.126C62.8492 418.126 64.2632 416.138 64.2632 413.142C64.2632 410.146 62.8492 408.158 60.7212 408.158C58.5932 408.158 57.1652 410.146 57.1652 413.142ZM58.8452 413.142C58.8452 411.154 59.5872 409.824 60.7212 409.824C61.8272 409.824 62.5832 411.154 62.5832 413.142C62.5832 415.13 61.8412 416.46 60.7212 416.46C59.5872 416.46 58.8452 415.144 58.8452 413.142Z" fill="black"/>
<path d="M65.5187 413.142C65.5187 416.138 66.9467 418.126 69.0747 418.126C71.2027 418.126 72.6167 416.138 72.6167 413.142C72.6167 410.146 71.2027 408.158 69.0747 408.158C66.9467 408.158 65.5187 410.146 65.5187 413.142ZM67.1987 413.142C67.1987 411.154 67.9407 409.824 69.0747 409.824C70.1807 409.824 70.9367 411.154 70.9367 413.142C70.9367 415.13 70.1947 416.46 69.0747 416.46C67.9407 416.46 67.1987 415.144 67.1987 413.142Z" fill="black"/>
<path d="M77.9182 418H79.3182C79.4022 418 79.4582 417.944 79.4582 417.86V413.828H83.6162V417.86C83.6162 417.944 83.6722 418 83.7422 418H85.1562C85.2402 418 85.2962 417.944 85.2962 417.86V408.41C85.2962 408.34 85.2402 408.284 85.1702 408.284H83.7562C83.6722 408.284 83.6162 408.34 83.6162 408.424V412.386H79.4582V408.41C79.4582 408.34 79.4022 408.284 79.3322 408.284H77.9182C77.8342 408.284 77.7782 408.34 77.7782 408.424V417.86C77.7782 417.944 77.8342 418 77.9182 418Z" fill="black"/>
<path d="M92.1365 412.316C91.6745 411.672 90.9605 411.308 90.0365 411.308C88.0625 411.308 86.7325 412.68 86.7325 414.724C86.7325 416.754 88.0625 418.168 90.0365 418.154C90.9605 418.154 91.6745 417.776 92.1365 417.118L92.3325 417.86C92.3605 417.944 92.4025 418 92.4865 418H93.5645C93.6485 418 93.7045 417.93 93.7045 417.86V411.56C93.7045 411.476 93.6485 411.42 93.5645 411.42H92.5005C92.4165 411.42 92.3745 411.476 92.3465 411.56L92.1365 412.316ZM88.3145 414.724C88.3145 413.618 89.0425 412.89 90.1345 412.89C91.2405 412.89 91.9965 413.618 92.0105 414.724C91.9965 415.83 91.2405 416.572 90.1345 416.572C89.0565 416.572 88.3145 415.816 88.3145 414.724Z" fill="black"/>
<path d="M95.4953 421.192H96.8113C96.8953 421.192 96.9513 421.136 96.9513 421.052V417.258C97.3993 417.832 98.0713 418.154 98.9253 418.154C100.913 418.154 102.243 416.768 102.243 414.724C102.243 412.68 100.913 411.28 98.9253 411.28C97.9873 411.28 97.2733 411.658 96.8113 412.33L96.6013 411.56C96.5733 411.49 96.5173 411.42 96.4193 411.42H95.4953C95.4113 411.42 95.3553 411.476 95.3553 411.574V421.052C95.3553 421.136 95.4113 421.192 95.4953 421.192ZM96.9653 414.71C96.9653 413.618 97.7213 412.862 98.8273 412.862C99.9193 412.862 100.661 413.618 100.661 414.724C100.661 415.83 99.9193 416.558 98.8273 416.558C97.7213 416.558 96.9653 415.816 96.9653 414.71Z" fill="black"/>
<path d="M103.63 421.192H104.946C105.03 421.192 105.086 421.136 105.086 421.052V417.258C105.534 417.832 106.206 418.154 107.06 418.154C109.048 418.154 110.378 416.768 110.378 414.724C110.378 412.68 109.048 411.28 107.06 411.28C106.122 411.28 105.408 411.658 104.946 412.33L104.736 411.56C104.708 411.49 104.652 411.42 104.554 411.42H103.63C103.546 411.42 103.49 411.476 103.49 411.574V421.052C103.49 421.136 103.546 421.192 103.63 421.192ZM105.1 414.71C105.1 413.618 105.856 412.862 106.962 412.862C108.054 412.862 108.796 413.618 108.796 414.724C108.796 415.83 108.054 416.558 106.962 416.558C105.856 416.558 105.1 415.816 105.1 414.71Z" fill="black"/>
<path d="M110.869 411.616L113.403 417.958L112.199 421.01C112.157 421.108 112.199 421.192 112.325 421.192H113.669C113.753 421.192 113.823 421.136 113.851 421.066L117.617 411.616C117.659 411.504 117.617 411.434 117.491 411.434H116.119C116.035 411.434 115.965 411.476 115.937 411.56L114.173 415.998L112.577 411.56C112.549 411.476 112.479 411.434 112.395 411.434H110.981C110.883 411.434 110.827 411.504 110.869 411.616Z" fill="black"/>
<path d="M130.149 416.852C130.205 416.796 130.191 416.726 130.149 416.656L129.309 415.592C129.295 415.564 129.253 415.55 129.225 415.55C129.183 415.55 129.141 415.564 129.113 415.592C128.553 416.054 127.741 416.474 126.649 416.474C124.689 416.474 123.373 415.144 123.373 413.156C123.373 411.14 124.689 409.81 126.649 409.81C127.797 409.81 128.567 410.23 129.113 410.706C129.141 410.734 129.183 410.748 129.211 410.748C129.253 410.748 129.295 410.734 129.309 410.706L130.121 409.642C130.177 409.586 130.177 409.516 130.121 409.46C129.183 408.578 127.937 408.158 126.649 408.158C124.171 408.158 121.693 409.824 121.693 413.156C121.693 416.11 123.681 418.14 126.649 418.14C127.951 418.14 129.211 417.748 130.149 416.852Z" fill="black"/>
<path d="M133.032 408.032C133.032 407.948 132.976 407.892 132.892 407.892H131.576C131.492 407.892 131.436 407.948 131.436 408.032L131.45 417.86C131.45 417.944 131.506 418 131.576 418H132.906C132.976 418 133.032 417.944 133.032 417.86V408.032Z" fill="black"/>
<path d="M136.327 411.56C136.327 411.476 136.271 411.434 136.187 411.434H134.885C134.787 411.42 134.731 411.49 134.731 411.574V417.86C134.731 417.944 134.787 418 134.871 418H136.187C136.271 418 136.327 417.944 136.327 417.86V411.56ZM134.493 409.194C134.493 409.81 134.913 410.23 135.529 410.23C136.159 410.23 136.551 409.81 136.551 409.194C136.551 408.578 136.159 408.172 135.529 408.172C134.913 408.172 134.493 408.578 134.493 409.194Z" fill="black"/>
<path d="M139.258 414.164C139.426 413.352 140.028 412.806 140.994 412.806C141.96 412.806 142.562 413.352 142.73 414.164H139.258ZM139.286 415.354H144.256C144.354 415.354 144.396 415.298 144.396 415.214C144.41 412.54 143.052 411.308 140.994 411.308C138.964 411.308 137.592 412.68 137.592 414.724C137.592 416.768 138.992 418.154 141.078 418.14C142.212 418.14 143.122 417.846 143.738 417.188C143.794 417.118 143.78 417.034 143.724 416.978L142.898 416.124C142.87 416.096 142.842 416.082 142.8 416.082C142.758 416.082 142.716 416.096 142.66 416.138C142.352 416.432 141.834 416.642 141.162 416.656C140.154 416.656 139.496 416.124 139.286 415.354Z" fill="black"/>
<path d="M145.64 417.86C145.64 417.944 145.696 418 145.78 418H147.096C147.166 418 147.236 417.944 147.236 417.86V414.808C147.278 413.87 147.726 412.876 148.804 412.876C149.574 412.876 150.12 413.394 150.12 414.5V417.86C150.12 417.944 150.176 418 150.26 418H151.576C151.66 418 151.716 417.944 151.716 417.86V414.206C151.716 412.344 150.694 411.266 149.21 411.266C148.244 411.266 147.558 411.672 147.138 412.33L146.984 411.574C146.97 411.49 146.914 411.434 146.816 411.434H145.78C145.696 411.434 145.64 411.49 145.64 411.574V417.86Z" fill="black"/>
<path d="M152.736 412.764C152.736 412.848 152.792 412.904 152.876 412.904H153.758V415.858C153.744 417.286 154.43 418.126 155.606 418.126C156.096 418.126 156.642 417.986 157.034 417.678C157.104 417.636 157.118 417.552 157.076 417.454L156.642 416.334C156.628 416.292 156.572 416.264 156.53 416.264C156.502 416.264 156.474 416.264 156.446 416.278C156.348 416.362 156.096 416.516 155.886 416.516C155.452 416.516 155.34 416.18 155.34 415.046V412.904H156.684C156.768 412.904 156.824 412.848 156.824 412.764V411.56C156.824 411.49 156.768 411.434 156.684 411.434H155.34V409.39C155.34 409.306 155.284 409.25 155.2 409.25H153.898C153.814 409.25 153.772 409.306 153.772 409.39L153.758 411.434H152.876C152.792 411.434 152.736 411.49 152.736 411.56V412.764Z" fill="black"/>
<path d="M157.678 417.412C157.93 417.608 158.91 418.126 160.212 418.126C161.766 418.14 162.816 417.328 162.788 416.026C162.746 414.864 161.962 414.374 160.506 414.024C159.666 413.828 159.26 413.66 159.246 413.282C159.246 413.002 159.638 412.764 160.226 412.764C160.31 412.764 160.38 412.764 160.464 412.778C161.15 412.848 161.598 413.128 161.794 413.24C161.822 413.254 161.85 413.254 161.878 413.254C161.92 413.254 161.976 413.226 161.99 413.184L162.522 412.176C162.564 412.106 162.536 412.022 162.48 411.966C162.256 411.798 161.43 411.294 160.296 411.28C158.812 411.266 157.608 412.022 157.664 413.338C157.692 414.346 158.35 414.934 159.68 415.298C160.59 415.564 161.192 415.718 161.192 416.138C161.192 416.628 160.296 416.656 159.974 416.656C159.232 416.6 158.658 416.292 158.364 416.124C158.336 416.11 158.308 416.096 158.28 416.096C158.238 416.096 158.196 416.124 158.168 416.166L157.636 417.216C157.594 417.286 157.608 417.37 157.678 417.412Z" fill="black"/>
<path d="M37.5645 440.212H41.5125V441.88C41.5125 441.952 41.5605 442 41.6325 442H42.8325C42.9045 442 42.9525 441.952 42.9525 441.88V440.212H43.7805C43.8525 440.212 43.9005 440.164 43.9005 440.092V439.096C43.9005 439.024 43.8525 438.976 43.7805 438.976H42.9525V433.804C42.9525 433.732 42.9045 433.684 42.8325 433.684L41.4525 433.672C41.3805 433.672 41.3085 433.72 41.2725 433.78L37.4805 440.056C37.4205 440.152 37.4565 440.212 37.5645 440.212ZM41.5125 435.772V438.976H39.5805L41.5125 435.772Z" fill="black"/>
<path d="M45.2602 441.28C45.2602 441.772 45.5962 442.12 46.1002 442.12C46.5922 442.12 46.9282 441.772 46.9282 441.28C46.9282 440.776 46.5922 440.44 46.1002 440.44C45.5962 440.44 45.2602 440.776 45.2602 441.28Z" fill="black"/>
<path d="M51.3405 441.892L53.2245 437.824C53.4645 437.296 53.6205 436.888 53.6205 436.264C53.6205 434.632 52.5285 433.552 50.9085 433.552C49.2765 433.552 48.2085 434.62 48.2085 436.264C48.2085 437.86 49.2645 438.904 50.8725 438.928C50.9805 438.928 51.1125 438.916 51.2325 438.88L49.8645 441.832C49.8165 441.928 49.8645 442 49.9605 442H51.1605C51.2445 442 51.3045 441.952 51.3405 441.892ZM50.9085 437.56C50.1405 437.56 49.6245 437.032 49.6245 436.252C49.6245 435.484 50.1525 434.968 50.9085 434.968C51.6885 434.968 52.2045 435.484 52.2045 436.252C52.2045 437.032 51.6765 437.56 50.9085 437.56Z" fill="black"/>
<path d="M64.0645 433.78C63.7885 434.248 62.6965 436.264 62.6965 438.808C62.6965 441.472 63.7885 443.368 64.0645 443.812C64.1005 443.872 64.1725 443.92 64.2565 443.92H65.0125C65.0845 443.92 65.1085 443.884 65.0605 443.824C64.7845 443.368 63.6685 441.472 63.6925 438.808C63.6925 436.264 64.7965 434.248 65.0725 433.78C65.1085 433.72 65.0845 433.684 65.0125 433.672H64.2565C64.1725 433.672 64.1005 433.72 64.0645 433.78Z" fill="#8A898E"/>
<path d="M66.4996 434.512C66.4996 434.584 66.5596 434.632 66.6316 434.632H67.7116V441.88C67.7116 441.952 67.7596 442 67.8316 442H68.6236C68.6956 442 68.7436 441.952 68.7436 441.88V433.804C68.7436 433.732 68.6956 433.672 68.6236 433.672H66.6316C66.5596 433.672 66.5116 433.732 66.4996 433.804V434.512Z" fill="#8A898E"/>
<path d="M71.8073 434.632H74.7593C74.8313 434.632 74.8793 434.584 74.8793 434.512V433.804C74.8793 433.732 74.8313 433.672 74.7593 433.672H71.0033C70.9313 433.672 70.8713 433.732 70.8713 433.804L70.5593 438.148C70.5473 438.22 70.5953 438.268 70.6673 438.268H71.5433C71.7833 437.992 72.2273 437.824 72.7433 437.824C73.7633 437.824 74.4113 438.544 74.4113 439.492C74.4113 440.452 73.7753 441.184 72.8153 441.184C71.9153 441.184 71.2793 440.632 71.2313 439.84C71.2193 439.768 71.1713 439.72 71.0993 439.72H70.3073C70.2353 439.72 70.1873 439.768 70.1873 439.84C70.2473 441.256 71.2793 442.192 72.8153 442.192C74.4113 442.192 75.4553 441.052 75.4553 439.492C75.4553 437.956 74.3873 436.864 72.7913 436.864C72.2993 436.864 71.9033 437.008 71.6273 437.164L71.8073 434.632Z" fill="#8A898E"/>
<path d="M77.0144 442H77.7584C77.8304 442 77.8784 441.952 77.8784 441.892V439.336L80.3744 441.94C80.4104 441.976 80.4704 442 80.5304 442H81.5624C81.6944 442 81.7304 441.94 81.6344 441.844L78.9704 439.084L81.2384 436.744C81.3344 436.648 81.3224 436.576 81.1784 436.576H80.1344C80.0864 436.576 80.0264 436.612 79.9904 436.648L77.8784 438.904V433.444C77.8784 433.384 77.8304 433.336 77.7584 433.336H77.0144C76.9424 433.336 76.9064 433.384 76.9064 433.444V441.892C76.9064 441.952 76.9544 442 77.0144 442Z" fill="#8A898E"/>
<path d="M85.6174 441.88C85.6174 441.952 85.6654 442 85.7374 442H86.5414C86.6134 442 86.6614 441.952 86.6614 441.88V438.532H87.8014L89.8414 441.94C89.8654 441.976 89.9134 442 89.9614 442H90.9454C91.0414 442 91.0774 441.952 91.0174 441.856L88.8694 438.472C90.1894 438.28 90.9574 437.416 90.9694 436.096C90.9574 434.596 89.9614 433.672 88.2934 433.672C87.7294 433.672 87.1534 433.672 86.5774 433.672C86.2894 433.672 86.0134 433.672 85.7254 433.672C85.6654 433.672 85.6174 433.72 85.6174 433.792V441.88ZM86.6614 437.56V434.632H88.3174C89.3254 434.632 89.9254 435.172 89.9254 436.108C89.9254 437.116 89.2654 437.56 88.3174 437.56H86.6614Z" fill="#8A898E"/>
<path d="M92.8228 438.892C92.9668 437.992 93.6508 437.392 94.6468 437.392C95.6428 437.392 96.3148 437.992 96.4588 438.892H92.8228ZM92.8348 439.696H97.3468C97.4188 439.696 97.4548 439.648 97.4548 439.576C97.4668 437.572 96.3988 436.456 94.6468 436.456C92.9668 436.456 91.8268 437.608 91.8268 439.288C91.8268 440.98 93.0028 442.12 94.7548 442.12C95.6908 442.12 96.4588 441.832 96.9508 441.28C96.9988 441.232 96.9988 441.16 96.9388 441.112L96.4468 440.632C96.4228 440.608 96.3988 440.584 96.3628 440.584C96.3268 440.584 96.2908 440.608 96.2548 440.644C95.9308 440.98 95.4148 441.184 94.7788 441.184C93.7228 441.184 92.9908 440.596 92.8348 439.696Z" fill="#8A898E"/>
<path d="M103.371 436.732C103.407 436.648 103.371 436.588 103.263 436.588L102.435 436.576C102.363 436.588 102.315 436.624 102.291 436.684L100.671 440.872L99.0393 436.672C99.0153 436.612 98.9673 436.576 98.9073 436.576H98.0673C97.9713 436.576 97.9353 436.648 97.9713 436.732L100.095 441.892C100.131 441.964 100.191 442 100.263 442H101.067C101.139 442 101.211 441.964 101.235 441.892L103.371 436.732Z" fill="#8A898E"/>
<path d="M105.254 436.696C105.254 436.624 105.218 436.576 105.146 436.576H104.402C104.342 436.576 104.294 436.624 104.294 436.696V441.88C104.294 441.952 104.342 442 104.402 442H105.146C105.218 442 105.266 441.952 105.266 441.88L105.254 436.696ZM104.078 434.572C104.078 434.992 104.366 435.28 104.786 435.28C105.194 435.28 105.47 434.992 105.47 434.572C105.47 434.152 105.194 433.888 104.786 433.888C104.366 433.888 104.078 434.152 104.078 434.572Z" fill="#8A898E"/>
<path d="M107.518 438.892C107.662 437.992 108.346 437.392 109.342 437.392C110.338 437.392 111.01 437.992 111.154 438.892H107.518ZM107.53 439.696H112.042C112.114 439.696 112.15 439.648 112.15 439.576C112.162 437.572 111.094 436.456 109.342 436.456C107.662 436.456 106.522 437.608 106.522 439.288C106.522 440.98 107.698 442.12 109.45 442.12C110.386 442.12 111.154 441.832 111.646 441.28C111.694 441.232 111.694 441.16 111.634 441.112L111.142 440.632C111.118 440.608 111.094 440.584 111.058 440.584C111.022 440.584 110.986 440.608 110.95 440.644C110.626 440.98 110.11 441.184 109.474 441.184C108.418 441.184 107.686 440.596 107.53 439.696Z" fill="#8A898E"/>
<path d="M112.655 436.684L114.191 441.904C114.203 441.964 114.263 442 114.323 442H115.151C115.223 442 115.271 441.964 115.295 441.904L116.435 437.848L117.563 441.904C117.587 441.964 117.635 442 117.707 442H118.547C118.607 442 118.655 441.964 118.679 441.904L120.215 436.696C120.227 436.624 120.191 436.588 120.131 436.588H119.255C119.207 436.588 119.147 436.624 119.123 436.684L118.103 440.812L116.939 436.684C116.915 436.624 116.855 436.588 116.795 436.588H116.075C116.015 436.588 115.955 436.624 115.931 436.684L114.767 440.764L113.735 436.684C113.723 436.624 113.675 436.588 113.603 436.588H112.727C112.667 436.588 112.643 436.624 112.655 436.684Z" fill="#8A898E"/>
<path d="M120.726 441.52C120.942 441.688 121.638 442.108 122.694 442.108C123.966 442.12 124.818 441.46 124.794 440.452C124.758 439.54 124.146 439.144 122.946 438.832C122.082 438.592 121.734 438.424 121.734 437.992C121.734 437.476 122.442 437.38 122.826 437.38C123.426 437.392 123.858 437.656 124.05 437.776C124.074 437.788 124.098 437.8 124.122 437.8C124.158 437.8 124.194 437.776 124.218 437.74L124.506 437.152C124.542 437.08 124.518 437.008 124.47 436.972C124.278 436.828 123.69 436.456 122.802 436.444C121.602 436.432 120.738 437.08 120.762 438.064C120.786 438.916 121.314 439.372 122.514 439.696C123.366 439.924 123.81 440.092 123.81 440.536C123.81 441.088 123.066 441.184 122.658 441.184C121.95 441.172 121.41 440.872 121.182 440.728C121.158 440.716 121.134 440.704 121.11 440.704C121.074 440.704 121.038 440.728 121.026 440.764L120.702 441.34C120.654 441.412 120.678 441.484 120.726 441.52Z" fill="#8A898E"/>
<path d="M125.876 433.672C125.804 433.672 125.78 433.72 125.816 433.78C126.104 434.248 127.208 436.264 127.196 438.808C127.22 441.472 126.104 443.368 125.828 443.824C125.792 443.884 125.804 443.92 125.876 443.92H126.644C126.716 443.92 126.788 443.872 126.824 443.812C127.1 443.368 128.192 441.472 128.192 438.808C128.192 436.264 127.1 434.248 126.824 433.78C126.788 433.72 126.716 433.672 126.644 433.672H125.876Z" fill="#8A898E"/>
<path d="M26.2759 438.372C26.0924 438.55 26.0081 438.807 26.0499 439.06L26.6796 442.545C26.7327 442.84 26.6081 443.139 26.3609 443.31C26.1186 443.487 25.7963 443.508 25.5321 443.366L22.3949 441.73C22.2858 441.672 22.1647 441.641 22.0407 441.637H21.8488C21.7822 441.647 21.717 441.668 21.6575 441.701L18.5196 443.345C18.3645 443.423 18.1888 443.451 18.0167 443.423C17.5974 443.344 17.3176 442.944 17.3863 442.523L18.0167 439.038C18.0585 438.783 17.9742 438.525 17.7907 438.344L15.233 435.865C15.019 435.657 14.9447 435.346 15.0424 435.065C15.1373 434.784 15.3796 434.579 15.6721 434.533L19.1925 434.023C19.4603 433.995 19.6955 433.832 19.8159 433.591L21.3671 430.411C21.404 430.34 21.4514 430.275 21.5088 430.22L21.5725 430.17C21.6058 430.133 21.6441 430.103 21.6866 430.078L21.7638 430.05L21.8842 430H22.1824C22.4487 430.028 22.6832 430.187 22.8057 430.425L24.3775 433.591C24.4909 433.823 24.7112 433.984 24.9655 434.023L28.4859 434.533C28.7834 434.576 29.032 434.781 29.1305 435.065C29.2232 435.349 29.1432 435.66 28.925 435.865L26.2759 438.372Z" fill="#FEBB43"/>
<path d="M74 12C74 5.37259 79.3726 0 86 0H337C343.627 0 349 5.37258 349 12V61C349 67.6274 343.627 73 337 73H86C79.3726 73 74 67.6274 74 61V12Z" fill="white"/>
<path d="M147.798 20.712C147.798 20.796 147.854 20.852 147.938 20.852H149.212V28.86C149.212 28.944 149.268 29 149.352 29H150.752C150.836 29 150.892 28.944 150.892 28.86V19.438C150.892 19.354 150.836 19.284 150.752 19.284H147.938C147.854 19.284 147.798 19.354 147.798 19.438V20.712Z" fill="black"/>
<path d="M152.319 24.142C152.319 27.138 153.747 29.126 155.875 29.126C158.003 29.126 159.417 27.138 159.417 24.142C159.417 21.146 158.003 19.158 155.875 19.158C153.747 19.158 152.319 21.146 152.319 24.142ZM153.999 24.142C153.999 22.154 154.741 20.824 155.875 20.824C156.981 20.824 157.737 22.154 157.737 24.142C157.737 26.13 156.995 27.46 155.875 27.46C154.741 27.46 153.999 26.144 153.999 24.142Z" fill="black"/>
<path d="M160.673 24.142C160.673 27.138 162.101 29.126 164.229 29.126C166.357 29.126 167.771 27.138 167.771 24.142C167.771 21.146 166.357 19.158 164.229 19.158C162.101 19.158 160.673 21.146 160.673 24.142ZM162.353 24.142C162.353 22.154 163.095 20.824 164.229 20.824C165.335 20.824 166.091 22.154 166.091 24.142C166.091 26.13 165.349 27.46 164.229 27.46C163.095 27.46 162.353 26.144 162.353 24.142Z" fill="black"/>
<path d="M168.69 21.314C168.69 22.756 169.656 23.708 171.098 23.708C172.54 23.708 173.492 22.756 173.492 21.314C173.492 19.858 172.54 18.906 171.098 18.906C169.656 18.906 168.69 19.858 168.69 21.314ZM170.146 21.314C170.146 20.74 170.524 20.362 171.098 20.362C171.658 20.362 172.036 20.74 172.036 21.314C172.036 21.874 171.658 22.252 171.098 22.252C170.524 22.252 170.146 21.874 170.146 21.314ZM175.928 26.732C175.928 26.172 176.306 25.794 176.88 25.794C177.44 25.794 177.818 26.172 177.818 26.732C177.818 27.306 177.44 27.684 176.88 27.684C176.306 27.684 175.928 27.306 175.928 26.732ZM174.472 26.746C174.472 28.188 175.438 29.14 176.88 29.14C178.322 29.14 179.274 28.188 179.274 26.746C179.274 25.29 178.322 24.338 176.88 24.338C175.438 24.338 174.472 25.29 174.472 26.746ZM170.496 28.818C170.426 28.93 170.468 29 170.608 29H171.896C171.966 29 172.05 28.958 172.078 28.902L177.636 19.046C177.692 18.962 177.636 18.892 177.524 18.892H176.222C176.152 18.892 176.082 18.92 176.04 18.99L170.496 28.818Z" fill="black"/>
<path d="M183.983 29H187.455C189.471 29 190.773 27.838 190.745 26.102C190.731 24.968 190.143 24.128 189.163 23.68C189.793 23.232 190.157 22.588 190.143 21.846C190.129 20.278 188.911 19.284 187.021 19.284H183.983C183.899 19.284 183.843 19.34 183.843 19.438L183.829 28.86C183.829 28.944 183.899 29 183.983 29ZM187.483 24.464C188.379 24.464 189.065 24.94 189.065 25.892C189.065 26.802 188.407 27.404 187.357 27.418H185.509V24.464H187.483ZM185.509 20.866H186.881C187.889 20.866 188.463 21.286 188.463 21.972C188.463 22.714 188.029 23.218 187.021 23.218H185.509V20.866Z" fill="black"/>
<path d="M192.026 26.228C192.026 28.09 193.02 29.154 194.49 29.168C195.456 29.168 196.198 28.762 196.688 28.118L196.842 28.86C196.87 28.944 196.926 29 197.01 29H198.046C198.13 29 198.186 28.944 198.186 28.86V22.574C198.186 22.49 198.13 22.434 198.046 22.434H196.744C196.646 22.434 196.59 22.49 196.59 22.574L196.604 25.64C196.534 26.984 195.82 27.642 195.022 27.656C194.14 27.656 193.622 27.138 193.622 25.934V22.574C193.622 22.49 193.566 22.434 193.482 22.434H192.166C192.082 22.434 192.026 22.49 192.026 22.574V26.228Z" fill="black"/>
<path d="M199.54 28.412C199.792 28.608 200.772 29.126 202.074 29.126C203.628 29.14 204.678 28.328 204.65 27.026C204.608 25.864 203.824 25.374 202.368 25.024C201.528 24.828 201.122 24.66 201.108 24.282C201.108 24.002 201.5 23.764 202.088 23.764C202.172 23.764 202.242 23.764 202.326 23.778C203.012 23.848 203.46 24.128 203.656 24.24C203.684 24.254 203.712 24.254 203.74 24.254C203.782 24.254 203.838 24.226 203.852 24.184L204.384 23.176C204.426 23.106 204.398 23.022 204.342 22.966C204.118 22.798 203.292 22.294 202.158 22.28C200.674 22.266 199.47 23.022 199.526 24.338C199.554 25.346 200.212 25.934 201.542 26.298C202.452 26.564 203.054 26.718 203.054 27.138C203.054 27.628 202.158 27.656 201.836 27.656C201.094 27.6 200.52 27.292 200.226 27.124C200.198 27.11 200.17 27.096 200.142 27.096C200.1 27.096 200.058 27.124 200.03 27.166L199.498 28.216C199.456 28.286 199.47 28.37 199.54 28.412Z" fill="black"/>
<path d="M207.528 22.56C207.528 22.476 207.472 22.434 207.388 22.434H206.086C205.988 22.42 205.932 22.49 205.932 22.574V28.86C205.932 28.944 205.988 29 206.072 29H207.388C207.472 29 207.528 28.944 207.528 28.86V22.56ZM205.694 20.194C205.694 20.81 206.114 21.23 206.73 21.23C207.36 21.23 207.752 20.81 207.752 20.194C207.752 19.578 207.36 19.172 206.73 19.172C206.114 19.172 205.694 19.578 205.694 20.194Z" fill="black"/>
<path d="M209.199 28.86C209.199 28.944 209.255 29 209.339 29H210.655C210.725 29 210.795 28.944 210.795 28.86V25.808C210.837 24.87 211.285 23.876 212.363 23.876C213.133 23.876 213.679 24.394 213.679 25.5V28.86C213.679 28.944 213.735 29 213.819 29H215.135C215.219 29 215.275 28.944 215.275 28.86V25.206C215.275 23.344 214.253 22.266 212.769 22.266C211.803 22.266 211.117 22.672 210.697 23.33L210.543 22.574C210.529 22.49 210.473 22.434 210.375 22.434H209.339C209.255 22.434 209.199 22.49 209.199 22.574V28.86Z" fill="black"/>
<path d="M218.156 25.164C218.324 24.352 218.926 23.806 219.892 23.806C220.858 23.806 221.46 24.352 221.628 25.164H218.156ZM218.184 26.354H223.154C223.252 26.354 223.294 26.298 223.294 26.214C223.308 23.54 221.95 22.308 219.892 22.308C217.862 22.308 216.49 23.68 216.49 25.724C216.49 27.768 217.89 29.154 219.976 29.14C221.11 29.14 222.02 28.846 222.636 28.188C222.692 28.118 222.678 28.034 222.622 27.978L221.796 27.124C221.768 27.096 221.74 27.082 221.698 27.082C221.656 27.082 221.614 27.096 221.558 27.138C221.25 27.432 220.732 27.642 220.06 27.656C219.052 27.656 218.394 27.124 218.184 26.354Z" fill="black"/>
<path d="M224.245 28.412C224.497 28.608 225.477 29.126 226.779 29.126C228.333 29.14 229.383 28.328 229.355 27.026C229.313 25.864 228.529 25.374 227.073 25.024C226.233 24.828 225.827 24.66 225.813 24.282C225.813 24.002 226.205 23.764 226.793 23.764C226.877 23.764 226.947 23.764 227.031 23.778C227.717 23.848 228.165 24.128 228.361 24.24C228.389 24.254 228.417 24.254 228.445 24.254C228.487 24.254 228.543 24.226 228.557 24.184L229.089 23.176C229.131 23.106 229.103 23.022 229.047 22.966C228.823 22.798 227.997 22.294 226.863 22.28C225.379 22.266 224.175 23.022 224.231 24.338C224.259 25.346 224.917 25.934 226.247 26.298C227.157 26.564 227.759 26.718 227.759 27.138C227.759 27.628 226.863 27.656 226.541 27.656C225.799 27.6 225.225 27.292 224.931 27.124C224.903 27.11 224.875 27.096 224.847 27.096C224.805 27.096 224.763 27.124 224.735 27.166L224.203 28.216C224.161 28.286 224.175 28.37 224.245 28.412Z" fill="black"/>
<path d="M230.329 28.412C230.581 28.608 231.561 29.126 232.863 29.126C234.417 29.14 235.467 28.328 235.439 27.026C235.397 25.864 234.613 25.374 233.157 25.024C232.317 24.828 231.911 24.66 231.897 24.282C231.897 24.002 232.289 23.764 232.877 23.764C232.961 23.764 233.031 23.764 233.115 23.778C233.801 23.848 234.249 24.128 234.445 24.24C234.473 24.254 234.501 24.254 234.529 24.254C234.571 24.254 234.627 24.226 234.641 24.184L235.173 23.176C235.215 23.106 235.187 23.022 235.131 22.966C234.907 22.798 234.081 22.294 232.947 22.28C231.463 22.266 230.259 23.022 230.315 24.338C230.343 25.346 231.001 25.934 232.331 26.298C233.241 26.564 233.843 26.718 233.843 27.138C233.843 27.628 232.947 27.656 232.625 27.656C231.883 27.6 231.309 27.292 231.015 27.124C230.987 27.11 230.959 27.096 230.931 27.096C230.889 27.096 230.847 27.124 230.819 27.166L230.287 28.216C230.245 28.286 230.259 28.37 230.329 28.412Z" fill="black"/>
<path d="M247.501 25.178C247.207 26.676 246.255 27.46 244.687 27.46C242.825 27.46 241.565 26.13 241.565 24.142C241.565 22.154 242.895 20.824 244.883 20.824C246.003 20.824 246.899 21.342 247.319 21.72C247.347 21.748 247.375 21.762 247.417 21.762C247.445 21.762 247.473 21.748 247.501 21.72L248.369 20.656C248.411 20.6 248.425 20.53 248.369 20.474C247.501 19.676 246.409 19.158 244.883 19.158C241.887 19.158 239.885 21.16 239.885 24.142C239.885 27.138 241.803 29.126 244.687 29.126C247.725 29.14 249.153 27.152 249.195 23.946C249.209 23.862 249.153 23.778 249.027 23.778H244.939C244.855 23.778 244.799 23.834 244.799 23.918V25.038C244.799 25.122 244.855 25.164 244.939 25.178H247.501Z" fill="black"/>
<path d="M254.155 24.1C254.183 24.1 254.197 24.114 254.225 24.114C254.295 24.114 254.337 24.072 254.351 24.016L254.687 22.644C254.715 22.56 254.673 22.49 254.589 22.462C254.379 22.406 254.015 22.294 253.581 22.294C252.909 22.294 252.335 22.588 251.915 23.008L251.775 22.574C251.761 22.504 251.705 22.434 251.593 22.434H250.683C250.599 22.434 250.543 22.49 250.543 22.574V28.86C250.543 28.944 250.599 29 250.683 29H251.999C252.097 29 252.139 28.944 252.139 28.86V24.702C252.377 24.198 252.825 23.904 253.273 23.904C253.595 23.904 253.973 24.016 254.155 24.1Z" fill="black"/>
<path d="M255.209 25.696C255.209 27.74 256.581 29.14 258.625 29.14C260.669 29.14 262.055 27.74 262.055 25.696C262.055 23.652 260.669 22.266 258.625 22.266C256.581 22.266 255.209 23.652 255.209 25.696ZM256.805 25.71C256.805 24.59 257.533 23.862 258.625 23.862C259.731 23.862 260.459 24.59 260.459 25.71C260.459 26.802 259.731 27.558 258.625 27.558C257.533 27.558 256.805 26.802 256.805 25.71Z" fill="black"/>
<path d="M262.515 22.56L264.307 28.888C264.335 28.958 264.391 29 264.475 29H265.847C265.931 29 266.001 28.958 266.015 28.888L267.121 24.674L268.213 28.888C268.241 28.958 268.297 29 268.381 29H269.809C269.879 29 269.949 28.958 269.963 28.888L271.741 22.56C271.755 22.49 271.727 22.434 271.643 22.434H270.131C270.061 22.434 270.005 22.476 269.991 22.546L269.039 26.97L267.877 22.56C267.849 22.476 267.779 22.434 267.709 22.434H266.547C266.477 22.434 266.421 22.476 266.407 22.56L265.231 26.788L264.265 22.56C264.251 22.476 264.195 22.434 264.125 22.434H262.613C262.543 22.434 262.501 22.49 262.515 22.56Z" fill="black"/>
<path d="M272.007 23.764C272.007 23.848 272.063 23.904 272.147 23.904H273.029V26.858C273.015 28.286 273.701 29.126 274.877 29.126C275.367 29.126 275.913 28.986 276.305 28.678C276.375 28.636 276.389 28.552 276.347 28.454L275.913 27.334C275.899 27.292 275.843 27.264 275.801 27.264C275.773 27.264 275.745 27.264 275.717 27.278C275.619 27.362 275.367 27.516 275.157 27.516C274.723 27.516 274.611 27.18 274.611 26.046V23.904H275.955C276.039 23.904 276.095 23.848 276.095 23.764V22.56C276.095 22.49 276.039 22.434 275.955 22.434H274.611V20.39C274.611 20.306 274.555 20.25 274.471 20.25H273.169C273.085 20.25 273.043 20.306 273.043 20.39L273.029 22.434H272.147C272.063 22.434 272.007 22.49 272.007 22.56V23.764Z" fill="black"/>
<path d="M277.244 19.032V28.86C277.244 28.944 277.3 29 277.384 29H278.7C278.784 29 278.84 28.944 278.84 28.86V25.794C278.882 24.856 279.33 23.876 280.408 23.876C281.178 23.876 281.724 24.394 281.724 25.5V28.86C281.724 28.944 281.78 29 281.864 29H283.18C283.264 29 283.32 28.944 283.32 28.86V25.206C283.32 23.344 282.298 22.266 280.814 22.266C279.904 22.266 279.246 22.63 278.84 23.218V19.032C278.84 18.948 278.784 18.892 278.7 18.892H277.384C277.3 18.892 277.244 18.948 277.244 19.032Z" fill="black"/>
<path d="M169.565 51.212H173.513V52.88C173.513 52.952 173.561 53 173.633 53H174.833C174.905 53 174.953 52.952 174.953 52.88V51.212H175.781C175.853 51.212 175.901 51.164 175.901 51.092V50.096C175.901 50.024 175.853 49.976 175.781 49.976H174.953V44.804C174.953 44.732 174.905 44.684 174.833 44.684L173.453 44.672C173.381 44.672 173.309 44.72 173.273 44.78L169.481 51.056C169.421 51.152 169.457 51.212 169.565 51.212ZM173.513 46.772V49.976H171.581L173.513 46.772Z" fill="black"/>
<path d="M177.26 52.28C177.26 52.772 177.596 53.12 178.1 53.12C178.592 53.12 178.928 52.772 178.928 52.28C178.928 51.776 178.592 51.44 178.1 51.44C177.596 51.44 177.26 51.776 177.26 52.28Z" fill="black"/>
<path d="M183.341 52.892L185.225 48.824C185.465 48.296 185.621 47.888 185.621 47.264C185.621 45.632 184.529 44.552 182.909 44.552C181.277 44.552 180.209 45.62 180.209 47.264C180.209 48.86 181.265 49.904 182.873 49.928C182.981 49.928 183.113 49.916 183.233 49.88L181.865 52.832C181.817 52.928 181.865 53 181.961 53H183.161C183.245 53 183.305 52.952 183.341 52.892ZM182.909 48.56C182.141 48.56 181.625 48.032 181.625 47.252C181.625 46.484 182.153 45.968 182.909 45.968C183.689 45.968 184.205 46.484 184.205 47.252C184.205 48.032 183.677 48.56 182.909 48.56Z" fill="black"/>
<path d="M196.065 44.78C195.789 45.248 194.697 47.264 194.697 49.808C194.697 52.472 195.789 54.368 196.065 54.812C196.101 54.872 196.173 54.92 196.257 54.92H197.013C197.085 54.92 197.109 54.884 197.061 54.824C196.785 54.368 195.669 52.472 195.693 49.808C195.693 47.264 196.797 45.248 197.073 44.78C197.109 44.72 197.085 44.684 197.013 44.672H196.257C196.173 44.672 196.101 44.72 196.065 44.78Z" fill="#8A898E"/>
<path d="M198.5 45.512C198.5 45.584 198.56 45.632 198.632 45.632H199.712V52.88C199.712 52.952 199.76 53 199.832 53H200.624C200.696 53 200.744 52.952 200.744 52.88V44.804C200.744 44.732 200.696 44.672 200.624 44.672H198.632C198.56 44.672 198.512 44.732 198.5 44.804V45.512Z" fill="#8A898E"/>
<path d="M203.807 45.632H206.759C206.831 45.632 206.879 45.584 206.879 45.512V44.804C206.879 44.732 206.831 44.672 206.759 44.672H203.003C202.931 44.672 202.871 44.732 202.871 44.804L202.559 49.148C202.547 49.22 202.595 49.268 202.667 49.268H203.543C203.783 48.992 204.227 48.824 204.743 48.824C205.763 48.824 206.411 49.544 206.411 50.492C206.411 51.452 205.775 52.184 204.815 52.184C203.915 52.184 203.279 51.632 203.231 50.84C203.219 50.768 203.171 50.72 203.099 50.72H202.307C202.235 50.72 202.187 50.768 202.187 50.84C202.247 52.256 203.279 53.192 204.815 53.192C206.411 53.192 207.455 52.052 207.455 50.492C207.455 48.956 206.387 47.864 204.791 47.864C204.299 47.864 203.903 48.008 203.627 48.164L203.807 45.632Z" fill="#8A898E"/>
<path d="M213.358 48.536C213.358 48.536 213.922 47.816 213.922 46.832C213.922 45.428 212.974 44.564 211.654 44.564C210.562 44.564 209.854 45.08 209.398 45.632C209.35 45.692 209.338 45.776 209.386 45.836L209.89 46.376C209.926 46.412 209.95 46.424 209.986 46.424C210.01 46.424 210.046 46.412 210.07 46.376C210.418 45.944 210.958 45.548 211.618 45.548C212.41 45.548 212.914 46.088 212.914 46.856C212.914 47.396 212.482 47.984 212.482 47.984C212.482 47.984 209.146 52.34 208.762 52.844C208.69 52.928 208.726 53 208.834 53H213.886C213.958 53 214.006 52.952 214.006 52.88V52.172C214.006 52.1 213.958 52.04 213.886 52.04H210.622C211.606 50.78 213.346 48.548 213.358 48.536Z" fill="#8A898E"/>
<path d="M215.324 48.836C215.324 51.404 216.5 53.108 218.276 53.108C220.04 53.108 221.216 51.404 221.216 48.836C221.216 46.28 220.04 44.564 218.276 44.564C216.5 44.564 215.324 46.28 215.324 48.836ZM216.368 48.836C216.368 46.88 217.124 45.584 218.276 45.584C219.404 45.584 220.172 46.892 220.172 48.836C220.172 50.792 219.404 52.088 218.276 52.088C217.124 52.088 216.368 50.792 216.368 48.836Z" fill="#8A898E"/>
<path d="M225.832 52.88C225.832 52.952 225.88 53 225.952 53H226.756C226.828 53 226.876 52.952 226.876 52.88V49.532H228.016L230.056 52.94C230.08 52.976 230.128 53 230.176 53H231.16C231.256 53 231.292 52.952 231.232 52.856L229.084 49.472C230.404 49.28 231.172 48.416 231.184 47.096C231.172 45.596 230.176 44.672 228.508 44.672C227.944 44.672 227.368 44.672 226.792 44.672C226.504 44.672 226.228 44.672 225.94 44.672C225.88 44.672 225.832 44.72 225.832 44.792V52.88ZM226.876 48.56V45.632H228.532C229.54 45.632 230.14 46.172 230.14 47.108C230.14 48.116 229.48 48.56 228.532 48.56H226.876Z" fill="#8A898E"/>
<path d="M233.038 49.892C233.182 48.992 233.866 48.392 234.862 48.392C235.858 48.392 236.53 48.992 236.674 49.892H233.038ZM233.05 50.696H237.562C237.634 50.696 237.67 50.648 237.67 50.576C237.682 48.572 236.614 47.456 234.862 47.456C233.182 47.456 232.042 48.608 232.042 50.288C232.042 51.98 233.218 53.12 234.97 53.12C235.906 53.12 236.674 52.832 237.166 52.28C237.214 52.232 237.214 52.16 237.154 52.112L236.662 51.632C236.638 51.608 236.614 51.584 236.578 51.584C236.542 51.584 236.506 51.608 236.47 51.644C236.146 51.98 235.63 52.184 234.994 52.184C233.938 52.184 233.206 51.596 233.05 50.696Z" fill="#8A898E"/>
<path d="M243.586 47.732C243.622 47.648 243.586 47.588 243.478 47.588L242.65 47.576C242.578 47.588 242.53 47.624 242.506 47.684L240.886 51.872L239.254 47.672C239.23 47.612 239.182 47.576 239.122 47.576H238.282C238.186 47.576 238.15 47.648 238.186 47.732L240.31 52.892C240.346 52.964 240.406 53 240.478 53H241.282C241.354 53 241.426 52.964 241.45 52.892L243.586 47.732Z" fill="#8A898E"/>
<path d="M245.469 47.696C245.469 47.624 245.433 47.576 245.361 47.576H244.617C244.557 47.576 244.509 47.624 244.509 47.696V52.88C244.509 52.952 244.557 53 244.617 53H245.361C245.433 53 245.481 52.952 245.481 52.88L245.469 47.696ZM244.293 45.572C244.293 45.992 244.581 46.28 245.001 46.28C245.409 46.28 245.685 45.992 245.685 45.572C245.685 45.152 245.409 44.888 245.001 44.888C244.581 44.888 244.293 45.152 244.293 45.572Z" fill="#8A898E"/>
<path d="M247.733 49.892C247.877 48.992 248.561 48.392 249.557 48.392C250.553 48.392 251.225 48.992 251.369 49.892H247.733ZM247.745 50.696H252.257C252.329 50.696 252.365 50.648 252.365 50.576C252.377 48.572 251.309 47.456 249.557 47.456C247.877 47.456 246.737 48.608 246.737 50.288C246.737 51.98 247.913 53.12 249.665 53.12C250.601 53.12 251.369 52.832 251.861 52.28C251.909 52.232 251.909 52.16 251.849 52.112L251.357 51.632C251.333 51.608 251.309 51.584 251.273 51.584C251.237 51.584 251.201 51.608 251.165 51.644C250.841 51.98 250.325 52.184 249.689 52.184C248.633 52.184 247.901 51.596 247.745 50.696Z" fill="#8A898E"/>
<path d="M252.869 47.684L254.405 52.904C254.417 52.964 254.477 53 254.537 53H255.365C255.437 53 255.485 52.964 255.509 52.904L256.649 48.848L257.777 52.904C257.801 52.964 257.849 53 257.921 53H258.761C258.821 53 258.869 52.964 258.893 52.904L260.429 47.696C260.441 47.624 260.405 47.588 260.345 47.588H259.469C259.421 47.588 259.361 47.624 259.337 47.684L258.317 51.812L257.153 47.684C257.129 47.624 257.069 47.588 257.009 47.588H256.289C256.229 47.588 256.169 47.624 256.145 47.684L254.981 51.764L253.949 47.684C253.937 47.624 253.889 47.588 253.817 47.588H252.941C252.881 47.588 252.857 47.624 252.869 47.684Z" fill="#8A898E"/>
<path d="M260.941 52.52C261.157 52.688 261.853 53.108 262.909 53.108C264.181 53.12 265.033 52.46 265.009 51.452C264.973 50.54 264.361 50.144 263.161 49.832C262.297 49.592 261.949 49.424 261.949 48.992C261.949 48.476 262.657 48.38 263.041 48.38C263.641 48.392 264.073 48.656 264.265 48.776C264.289 48.788 264.313 48.8 264.337 48.8C264.373 48.8 264.409 48.776 264.433 48.74L264.721 48.152C264.757 48.08 264.733 48.008 264.685 47.972C264.493 47.828 263.905 47.456 263.017 47.444C261.817 47.432 260.953 48.08 260.977 49.064C261.001 49.916 261.529 50.372 262.729 50.696C263.581 50.924 264.025 51.092 264.025 51.536C264.025 52.088 263.281 52.184 262.873 52.184C262.165 52.172 261.625 51.872 261.397 51.728C261.373 51.716 261.349 51.704 261.325 51.704C261.289 51.704 261.253 51.728 261.241 51.764L260.917 52.34C260.869 52.412 260.893 52.484 260.941 52.52Z" fill="#8A898E"/>
<path d="M266.091 44.672C266.019 44.672 265.995 44.72 266.031 44.78C266.319 45.248 267.423 47.264 267.411 49.808C267.435 52.472 266.319 54.368 266.043 54.824C266.007 54.884 266.019 54.92 266.091 54.92H266.859C266.931 54.92 267.003 54.872 267.039 54.812C267.315 54.368 268.407 52.472 268.407 49.808C268.407 47.264 267.315 45.248 267.039 44.78C267.003 44.72 266.931 44.672 266.859 44.672H266.091Z" fill="#8A898E"/>
<path d="M158.276 49.3725C158.092 49.5503 158.008 49.8074 158.05 50.0596L158.68 53.5446C158.733 53.84 158.608 54.1389 158.361 54.3096C158.119 54.4867 157.796 54.5079 157.532 54.3663L154.395 52.73C154.286 52.6719 154.165 52.6408 154.041 52.6372H153.849C153.782 52.6471 153.717 52.6684 153.658 52.701L150.52 54.345C150.364 54.4229 150.189 54.4505 150.017 54.4229C149.597 54.3436 149.318 53.9441 149.386 53.5226L150.017 50.0376C150.059 49.7833 149.974 49.5248 149.791 49.3442L147.233 46.865C147.019 46.6575 146.945 46.3458 147.042 46.0646C147.137 45.7841 147.38 45.5794 147.672 45.5333L151.193 45.0226C151.46 44.995 151.695 44.8321 151.816 44.5913L153.367 41.4108C153.404 41.34 153.451 41.2748 153.509 41.2196L153.573 41.17C153.606 41.1332 153.644 41.1027 153.687 41.0779L153.764 41.0496L153.884 41H154.182C154.449 41.0276 154.683 41.187 154.806 41.425L156.378 44.5913C156.491 44.8229 156.711 44.9837 156.965 45.0226L160.486 45.5333C160.783 45.5758 161.032 45.7812 161.13 46.0646C161.223 46.3486 161.143 46.6603 160.925 46.865L158.276 49.3725Z" fill="#FEBB43"/>
<path d="M115.9 19.5606C115.82 20.0606 115.78 20.5606 115.78 21.0606C115.78 25.5606 119.42 29.1986 123.9 29.1986C124.4 29.1986 124.88 29.1406 125.38 29.0606V45.1986C125.38 51.9806 121.38 56.0006 114.58 56.0006H99.802C93 56.0006 89 51.9806 89 45.1986V30.4006C89 23.6006 93 19.5606 99.802 19.5606H115.9ZM116.302 31.7206C115.76 31.6606 115.222 31.9006 114.9 32.3406L110.062 38.6006L104.52 34.2406C104.18 33.9806 103.78 33.8786 103.38 33.9206C102.982 33.9806 102.622 34.1986 102.38 34.5186L96.462 42.2206L96.34 42.4006C96 43.0386 96.16 43.8586 96.76 44.3006C97.04 44.4806 97.34 44.6006 97.68 44.6006C98.142 44.6206 98.58 44.3786 98.86 44.0006L103.88 37.5386L109.58 41.8206L109.76 41.9386C110.4 42.2786 111.2 42.1206 111.66 41.5186L117.44 34.0606L117.36 34.1006C117.68 33.6606 117.74 33.1006 117.52 32.6006C117.302 32.1006 116.82 31.7606 116.302 31.7206ZM124.18 16C126.84 16 129 18.16 129 20.82C129 23.48 126.84 25.64 124.18 25.64C121.52 25.64 119.36 23.48 119.36 20.82C119.36 18.16 121.52 16 124.18 16Z" fill="black"/>
</svg>
